<svg xmlns="http://www.w3.org/2000/svg" viewBox="0 0 512 512">
  <path d="M432 0H96C78.3 0 64 14.3 64 32v448c0 17.7 14.3 32 32 32h320c17.7 0 32-14.3 32-32V32c0-17.7-14.3-32-32-32zM224 64h128v32H224V64zm-64 64h256v32H160v-32zm256 96H160v-32h256v32zm0 64H160v-32h256v32zm0 64H160v-32h256v32z" fill="#4CAF50"/>
  <path d="M128 64h64v32h-64z" fill="#FFC107"/>
  <path d="M128 160h256v32H128z" fill="#2196F3"/>
  <path d="M128 256h256v32H128z" fill="#E91E63"/>
  <path d="M128 352h256v32H128z" fill="#9C27B0"/>
</svg>